<?xml version="1.0" encoding="utf-8"?>
<!-- Svg Vector Icons : http://www.onlinewebfonts.com/icon -->
<!DOCTYPE svg PUBLIC "-//W3C//DTD SVG 1.1//EN" "http://www.w3.org/Graphics/SVG/1.1/DTD/svg11.dtd">
<svg version="1.1" xmlns="http://www.w3.org/2000/svg" xmlns:xlink="http://www.w3.org/1999/xlink" x="0px" y="0px" viewBox="0 0 1000 1000" enable-background="new 0 0 1000 1000" xml:space="preserve">
<metadata> Svg Vector Icons : http://www.onlinewebfonts.com/icon </metadata>
<g><g transform="translate(0.000000,511.000000) scale(0.100000,-0.100000)"><path d="M4664.4,5003.9c-658.2-60-1194.1-207.9-1768.7-490.9C664,3423.9-427.2,883.4,348.9-1414.8c420.2-1245.6,1352.8-2300.3,2546.9-2883.5c705.3-345.2,1324.9-491,2101-491c428.8-2.1,634.6,19.3,1035.5,109.4c1577.9,345.1,2926.4,1507.1,3541.6,3050.7c435.2,1091.2,435.2,2381.8-2.1,3477.3c-660.3,1659.3-2139.6,2844.9-3889,3115C5470.5,4995.3,4848.8,5021.1,4664.4,5003.9z M5316.2,4395c1556.4-113.6,2885.6-1005.5,3550.2-2384c295.8-611,428.8-1204.8,428.8-1908c0-1537.1-765.4-2907.1-2068.8-3693.9c-849-512.4-1972.3-716.1-2984.2-536c-1252,218.7-2317.5,954-2954.2,2036.7c-306.6,520.9-506,1144.8-568.1,1788c-87.9,894,120.1,1848,568.1,2609.1C1961,3447.5,3123,4208.5,4450.1,4371.5c165.1,21.4,261.6,30,493.1,40.7C4983.9,4414.3,5153.2,4405.8,5316.2,4395z"/><path d="M3485.3,1385.1V25.9h-283c-156.5,0-310.9-2.1-343-2.1l-60-2.1v-300.1v-300.1h343h343v-278.7v-278.7h-343h-343v-300.1v-300.1h343h343v-503.8V-2744h300.1h300.1v503.8v503.8h1468.5h1468.5v300.1v300.1H5554.1H4085.6v276.6v278.7l1024.8,8.6c1140.5,8.6,1123.4,6.4,1455.7,167.2c349.4,167.2,649.6,467.4,821.1,821.1c300.1,619.6,169.4,1320.6-343,1830.8c-229.4,231.5-484.5,377.3-791.1,456.7c-147.9,38.6-248.7,40.7-1464.2,40.7H3485.3V1385.1z M6283,2084c274.4-102.9,488.8-310.9,591.7-578.8c66.5-169.4,81.5-546.7,30-724.6C6797.6,411.8,6572.5,186.7,6197.3,73c-115.8-36.4-225.1-40.7-1114.8-40.7h-986.2l-6.4,1056.9l-4.3,1056.9l1033.3-6.4C6135.1,2133.3,6156.6,2133.3,6283,2084z"/></g></g>
</svg>