<?xml version="1.0" encoding="utf-8"?>
<!-- Svg Vector Icons : http://www.onlinewebfonts.com/icon -->
<!DOCTYPE svg PUBLIC "-//W3C//DTD SVG 1.1//EN" "http://www.w3.org/Graphics/SVG/1.1/DTD/svg11.dtd">
<svg version="1.1" xmlns="http://www.w3.org/2000/svg" xmlns:xlink="http://www.w3.org/1999/xlink" x="0px" y="0px" viewBox="0 0 1000 1000" enable-background="new 0 0 1000 1000" xml:space="preserve">
<metadata> Svg Vector Icons : http://www.onlinewebfonts.com/icon </metadata>
<g><g transform="translate(0.000000,512.000000) scale(0.100000,-0.100000)"><path d="M4611.4,5009.5c-1496.2-124.7-2849.3-938.2-3707.8-2225.9C73.8,1538.8-126.5-39.2,364-1451.6c239.1-688.8,611.1-1287.7,1132.4-1825.3c600.9-617.3,1271.4-1036.3,2062.4-1287.7c846.2-267.8,1808.9-286.2,2675.6-53.1c1710.8,461.9,3104.8,1882.5,3527.9,3595.4c128.8,519.2,169.6,1128.3,112.4,1653.6c-237.1,2178.9-1999,4008.3-4171.8,4335.3C5382,5013.5,4899.6,5034,4611.4,5009.5z M5625.3,4322.7c719.5-102.2,1406.3-388.4,1986.8-827.8c216.6-163.5,605-551.9,766.5-764.4c457.8-609.1,737.9-1300,836-2058.3c49.1-396.5,32.7-989.3-40.9-1373.5c-355.6-1862.1-1835.5-3207-3750.7-3407.3c-314.8-32.7-883-14.3-1187.6,40.9c-1163,204.4-2146.2,842.1-2790,1813C1101.9-1737.7,864.8-1079.6,781-417.3c-34.8,271.9-30.7,878.9,10.2,1144.6c71.5,494.6,192.1,885,398.6,1308.1c494.6,1009.7,1336.8,1749.7,2399.6,2105.3c312.7,104.2,701.1,186,1013.8,212.6C4871,4377.9,5343.2,4363.5,5625.3,4322.7z"/><path d="M3990.1,1751.3v-662.2l-316.8-106.3l-316.8-106.3V541.3c0-259.6,6.1-335.2,26.6-335.2c14.3,0,149.2,40.9,300.5,92c151.3,51.1,282.1,92,290.2,92c8.2,0,16.3-136.9,16.3-304.6V-219l-316.8-106.3l-316.8-106.3v-335.2c0-259.6,6.1-335.2,26.6-335.2c14.3,0,149.2,40.9,300.5,92c151.3,51.1,282.1,92,290.2,92c8.2,0,16.3-429.2,16.3-952.5v-954.5l445.6,12.3c278,6.1,511,22.5,625.5,44.9c772.6,143.1,1226.4,502.8,1441,1144.6c69.5,212.6,124.7,549.8,124.7,774.7v155.3h-322.9h-325l-12.3-259.6c-38.8-817.6-341.3-1130.4-1165.1-1201.9l-157.4-14.3l4.1,742l6.1,739.9l654.1,218.7l654.1,218.7l6.1,339.3c2.1,188-2,341.3-10.2,341.3c-10.2,0-306.6-96.1-660.2-214.6C4944.6,97.8,4652.3,1.7,4648.2,1.7c-2,0-2,139,0,310.7l6.1,308.6l654.1,218.7l654.1,218.7l6.1,339.3c2.1,188.1-2,341.3-10.2,341.3c-10.2,0-306.6-96.1-660.2-214.6c-353.6-118.5-645.9-214.6-647.9-214.6c-4.1,0-6.1,249.4-6.1,551.9v551.9h-327h-327V1751.3z"/></g></g>
</svg>